HIERARCHY
ROOT Hips
{
    OFFSET 0.000000 0.000000 0.000000
    CHANNELS 6 Xposition Yposition Zposition Zrotation Xrotation Yrotation
    JOINT Spine
    {
        OFFSET -0.000000 7.246840 0.000000
        CHANNELS 3 Zrotation Xrotation Yrotation
        JOINT Spine1
        {
            OFFSET -0.000000 20.289354 0.000000
            CHANNELS 3 Zrotation Xrotation Yrotation
            JOINT Neck
            {
                OFFSET -0.000000 20.206032 1.836912
                CHANNELS 3 Zrotation Xrotation Yrotation
                JOINT Head
                {
                    OFFSET -0.000000 12.372654 -1.767522
                    CHANNELS 3 Zrotation Xrotation Yrotation
                    End Site
                    {
                        OFFSET -0.000000 22.094025 0.000000
                    }
                }
            }
            JOINT LeftShoulder
            {
                OFFSET 3.465871 17.201674 -0.568930
                CHANNELS 3 Zrotation Xrotation Yrotation
                JOINT LeftArm
                {
                    OFFSET 14.070313 0.000000 0.000000
                    CHANNELS 3 Zrotation Xrotation Yrotation
                    JOINT LeftForeArm
                    {
                        OFFSET 26.549477 0.000000 0.000000
                        CHANNELS 3 Zrotation Xrotation Yrotation
                        JOINT LeftHand
                        {
                            OFFSET 18.880413 0.000000 0.000000
                            CHANNELS 3 Zrotation Xrotation Yrotation
                            End Site
                            {
                                OFFSET 13.256415 0.000000 0.000000
                            }
                        }
                    }
                }
            }
            JOINT RightShoulder
            {
                OFFSET -3.526370 17.201674 -0.568930
                CHANNELS 3 Zrotation Xrotation Yrotation
                JOINT RightArm
                {
                    OFFSET -14.070313 0.000000 0.000000
                    CHANNELS 3 Zrotation Xrotation Yrotation
                    JOINT RightForeArm
                    {
                        OFFSET -26.549477 0.000000 0.000000
                        CHANNELS 3 Zrotation Xrotation Yrotation
                        JOINT RightHand
                        {
                            OFFSET -18.880413 0.000000 0.000000
                            CHANNELS 3 Zrotation Xrotation Yrotation
                            End Site
                            {
                                OFFSET -13.256415 0.000000 0.000000
                            }
                        }
                    }
                }
            }
        }
    }
    JOINT LeftUpLeg
    {
        OFFSET 8.837609 0.000000 0.000000
        CHANNELS 3 Zrotation Xrotation Yrotation
        JOINT LeftLeg
        {
            OFFSET -0.000000 -41.345005 0.000000
            CHANNELS 3 Zrotation Xrotation Yrotation
            JOINT LeftFoot
            {
                OFFSET -0.000000 -35.500874 0.000000
                CHANNELS 3 Zrotation Xrotation Yrotation
                JOINT LeftToeBase
                {
                    OFFSET -0.000000 -5.744446 13.256415
                    CHANNELS 3 Zrotation Xrotation Yrotation
                    End Site
                    {
                        OFFSET -0.000000 0.000000 3.535044
                    }
                }
            }
        }
    }
    JOINT RightUpLeg
    {
        OFFSET -8.837609 0.000000 0.000000
        CHANNELS 3 Zrotation Xrotation Yrotation
        JOINT RightLeg
        {
            OFFSET -0.000000 -41.345005 0.000000
            CHANNELS 3 Zrotation Xrotation Yrotation
            JOINT RightFoot
            {
                OFFSET -0.000000 -35.500874 0.000000
                CHANNELS 3 Zrotation Xrotation Yrotation
                JOINT RightToeBase
                {
                    OFFSET -0.000000 -5.744446 13.256415
                    CHANNELS 3 Zrotation Xrotation Yrotation
                    End Site
                    {
                        OFFSET -0.000000 0.000000 3.535044
                    }
                }
            }
        }
    }
}
MOTION
Frames:    8
Frame Time:    0.010000
2.910224    82.302963    -8.656752    3.735568    2.540540    0.515573    -7.297936    -13.196377    -1.921768    4.651973    2.748415    -1.188203    0.718779    31.274351    -1.775800    0.416436    -8.955068    -1.649695    19.243341    2.124046    5.631708    -30.288435    11.012203    -10.267549    7.162201    -8.418025    -10.635001    -24.318420    -7.764117    0.032485    -16.040495    -1.619158    12.573090    19.290377    9.156633    9.144660    -3.897335    -7.863280    2.206162    11.720787    -6.270610    14.820655    -0.229362    5.014057    2.572429    -1.468011    -8.704659    -3.972495    1.006024    2.065675    0.473986    -0.537870    -1.240884    0.758652    -13.088778    5.128406    -1.520494    7.646960    -9.453429    1.595253    2.294440    -0.661653    -9.230186    0.142388    -0.862451    -0.257752    
2.914379    82.302773    -8.652245    3.723601    2.540320    0.608237    -7.330096    -13.210512    -1.955658    4.645011    2.774857    -1.218313    0.749685    31.257105    -1.791050    0.404059    -8.926623    -1.663873    19.257454    2.076488    5.591596    -30.292959    11.043535    -10.258331    7.133109    -8.434807    -10.619328    -24.193573    -7.773759    -0.018375    -16.032246    -1.592558    12.536041    19.277416    9.122705    9.129337    -3.914839    -7.923760    2.214096    11.834738    -6.313346    14.844140    -0.213906    5.012316    2.537499    -1.478090    -8.713017    -3.976213    1.020209    2.059338    0.416332    -0.579232    -1.213995    0.816857    -13.077361    5.134124    -1.552694    7.640641    -9.393808    1.594536    2.308334    -0.716748    -9.286845    0.132767    -0.866507    -0.240348    
2.919699    82.303543    -8.648428    3.710770    2.537947    0.700181    -7.373022    -13.212162    -1.991783    4.665637    2.787570    -1.250371    0.745921    31.236105    -1.790440    0.417208    -8.887100    -1.661270    19.231213    2.124108    5.606916    -30.252266    11.038496    -10.365771    7.134993    -8.411610    -10.537886    -24.186499    -7.723497    -0.168733    -16.060627    -1.583877    12.501409    19.291996    9.088323    9.105444    -3.928919    -7.991821    2.216835    12.003713    -6.358536    14.850113    -0.203387    5.010773    2.544183    -1.478520    -8.714559    -4.111156    1.007950    2.067396    0.471745    -0.549953    -1.222286    0.775606    -13.061296    5.137019    -1.594483    7.633242    -9.329450    1.581082    2.197780    -0.968833    -9.572692    0.012817    -0.595540    -0.023133    
2.922638    82.304062    -8.644424    3.694683    2.539082    0.780787    -7.394916    -13.225365    -2.015080    4.651247    2.812726    -1.270905    0.819889    31.239510    -1.812266    0.362817    -8.899043    -1.684809    19.250200    2.098236    5.573996    -30.253702    11.078638    -10.377680    7.139656    -8.453184    -10.529249    -24.145132    -7.751185    -0.235348    -16.056078    -1.585656    12.462966    19.296249    9.037070    9.070984    -3.916733    -8.018291    2.210484    12.105986    -6.377476    14.800387    -0.189738    5.011076    2.537423    -1.478054    -8.729461    -4.146486    1.002169    2.072312    0.446390    -0.551010    -1.223855    0.777105    -13.046668    5.136691    -1.616215    7.626376    -9.270341    1.602018    2.222856    -1.006317    -9.651142    0.022049    -0.626950    -0.039810    
2.918036    82.304703    -8.634281    3.676950    2.540848    0.890882    -7.449645    -13.243977    -2.065462    4.667846    2.841209    -1.315231    0.840312    31.246542    -1.810929    0.374412    -8.906639    -1.677762    19.256163    2.091111    5.559503    -30.237041    11.126428    -10.398562    7.131081    -8.500530    -10.532997    -24.084423    -7.784118    -0.307165    -16.060570    -1.567475    12.440362    19.297102    8.976365    9.053762    -3.902808    -8.014512    2.202680    12.229338    -6.363239    14.753087    -0.159275    5.012352    2.494327    -1.509051    -8.741553    -4.112030    1.258056    2.207111    0.577087    -0.188819    -1.503509    0.266756    -13.009480    5.157574    -1.693219    7.608113    -9.229637    1.587783    2.230268    -1.037366    -9.669058    0.012778    -0.603459    -0.023064    
2.922415    82.305054    -8.629413    3.660640    2.544674    0.951674    -7.339453    -13.311597    -2.056972    4.387667    2.945293    -1.312230    1.096998    31.288004    -1.853506    0.299780    -8.996883    -1.699586    19.385784    2.124429    5.532190    -30.218952    11.080611    -10.456925    7.146599    -8.543410    -10.540355    -24.087717    -7.822670    -0.319067    -15.819037    -1.549615    12.413786    19.213509    8.862765    9.039652    -3.883455    -7.943982    2.169178    12.241110    -6.297419    14.706878    -0.153389    5.011271    2.531542    -1.490045    -8.751345    -4.250763    0.998932    2.079240    0.408115    -0.561042    -1.243776    0.791349    -12.995991    5.155482    -1.703310    7.608950    -9.185862    1.588781    2.316877    -0.906690    -9.512576    0.128421    -0.800429    -0.232311    
2.926851    82.306053    -8.624366    3.644379    2.547905    1.005917    -7.338612    -13.313992    -2.074525    4.356515    2.942955    -1.328858    1.092082    31.308104    -1.849389    0.343123    -9.012370    -1.686283    19.409370    2.101290    5.515203    -30.259233    10.986537    -10.453106    7.150938    -8.505013    -10.540143    -24.093353    -7.776635    -0.352933    -15.815234    -1.528386    12.408973    19.224438    8.796044    9.019921    -3.845193    -7.914575    2.165470    12.138875    -6.286479    14.665434    -0.144697    5.022600    2.474566    -1.482121    -8.789601    -4.138669    1.001633    2.099914    0.309109    -0.563154    -1.228593    0.794254    -12.977743    5.154383    -1.722543    7.605355    -9.151893    1.566836    2.240083    -1.076636    -9.731653    0.014203    -0.592231    -0.025634    
2.931467    82.306892    -8.618464    3.631970    2.548110    1.051508    -7.382058    -13.308599    -2.102011    4.410271    2.940485    -1.352862    1.064878    31.317770    -1.835244    0.346657    -9.026329    -1.674646    19.358824    2.129299    5.529933    -30.241116    10.979748    -10.461493    7.153242    -8.524013    -10.621368    -24.123562    -7.797420    -0.319215    -15.842996    -1.528132    12.407786    19.232403    8.744190    9.006209    -3.826746    -7.901258    2.150763    12.040421    -6.288956    14.644089    -0.135587    5.025649    2.490105    -1.472640    -8.799917    -4.225089    0.978412    2.097663    0.335155    -0.555958    -1.240836    0.784165    -12.967930    5.158219    -1.747840    7.604024    -9.116406    1.579243    2.343840    -0.884257    -9.504211    0.157146    -0.830921    -0.284370    
